<svg height="512pt" viewBox="0 -68 512.00099 512" width="512pt" xmlns="http://www.w3.org/2000/svg"><path d="m8.535156 358.425781c-4.714844 0-8.535156 3.820313-8.535156 8.535157 0 4.710937 3.820312 8.53125 8.535156 8.53125h93.863282c20.042968.003906 39.285156-7.855469 53.589843-21.886719.601563-.246094 1.078125-.722657 1.324219-1.324219 16.167969-16.398438 24.03125-39.242188 21.382812-62.121094h17.128907c0 .496094.136719.972656.179687 1.46875.761719 8.832032 8.15625 15.609375 17.023438 15.597656h85.945312c8.871094.011719 16.269532-6.777343 17.023438-15.617187.042968-.492187.136718-.960937.179687-1.449219h17.128907c-2.660157 23.027344 5.324218 46.007813 21.683593 62.429688.125.144531.175781.339844.324219.488281.144531.144531.347656.203125.511719.339844 1.789062 1.769531 3.664062 3.4375 5.621093 5.007812h-79.84375c-4.714843 0-8.535156 3.820313-8.535156 8.535157 0 4.710937 3.820313 8.53125 8.535156 8.53125h128c20.039063.003906 39.28125-7.855469 53.585938-21.886719.601562-.246094 1.078125-.722657 1.324219-1.324219 29.234375-29.839844 29.152343-77.609375-.1875-107.347656-.136719-.164063-.1875-.359375-.339844-.511719-.15625-.152344-.34375-.195313-.488281-.324219-2.582032-2.519531-5.339844-4.855468-8.25-6.988281l8.574218-12.859375c6.554688 4.972656 12.527344 10.667969 17.800782 16.980469 4.628906 5.664062 12.34375 7.769531 19.207031 5.238281 6.765625-2.417969 11.25-8.859375 11.171875-16.042969v-32.5625c-.011719-7.964843-1.867188-15.824219-5.417969-22.953125l-23.824219-47.644531c-2.410156-4.78125-5.554687-9.152344-9.320312-12.960937-.171875-.171876-.339844-.324219-.527344-.484376-3.160156-3.171874-6.722656-5.914062-10.589844-8.160156l-44.433593-25.421875c-5-53.410156-87.554688-78.785156-91.171875-79.878906-2.917969-.875-6.085938-.125-8.304688 1.964844-2.214844 2.09375-3.148437 5.210937-2.449218 8.175781.703124 2.96875 2.9375 5.335938 5.855468 6.210938 19.421875 5.816406 66.09375 26.109374 76.929688 56.011718l-58.34375-19.449218c-3.386719-12.828126-16.03125-20.929688-29.101563-18.648438-13.070312 2.28125-22.222656 14.183594-21.066406 27.402344 1.152344 13.21875 12.230469 23.351562 25.5 23.332031 1.167969-.039063 2.335937-.15625 3.488281-.347656l20.320313 33.859375-27.035157 34.753906h-61.816406c-17.113281.019531-33.847656-5.046875-48.074218-14.554688l-28.835938-19.21875c-41.144531-27.433593-95.9375-22.007812-130.902344 12.960938l-3.746094 3.746094h-22.066406c-9.425781 0-17.066406 7.644531-17.066406 17.066406v17.070312c0 9.425782 7.640625 17.066407 17.066406 17.066407h3.070313l11 23.796875c1.949219 4.527344 5.761719 7.992187 10.453125 9.5 4.695312 1.507812 9.808594.914062 14.03125-1.632813 2.421875-1.464843 4.8125-2.789062 7.175781-4.027343l4.949219 14.847656c-7.167969 3.628906-13.730469 8.351562-19.449219 13.996094-.058594.058593-.144531.078124-.203125.144531-.058594.070312-.085938.144531-.144531.207031-29.722657 29.835938-29.796875 78.070312-.164063 107.996094.128906.144531.179688.339844.324219.488281.148437.144531.351563.203125.511719.339844 1.792968 1.769531 3.667968 3.4375 5.625 5.007812zm57.28125-23.039062c-2.984375-2.9375-7.671875-3.238281-11.007812-.707031-6.113282-8.054688-10.0625-17.542969-11.476563-27.554688 4.429688-.28125 7.878907-3.957031 7.878907-8.398438 0-4.4375-3.449219-8.113281-7.878907-8.394531 1.410157-9.996093 5.347657-19.460937 11.445313-27.503906 3.324218 2.59375 8.058594 2.300781 11.042968-.683594 2.980469-2.980469 3.273438-7.714843.679688-11.042969 8.042969-6.09375 17.511719-10.035156 27.503906-11.441406.28125 4.429688 3.957032 7.878906 8.394532 7.878906 4.441406 0 8.117187-3.449218 8.398437-7.878906 10.011719 1.414063 19.5 5.363282 27.554687 11.476563-2.617187 3.316406-2.335937 8.066406.648438 11.054687 2.984375 2.988282 7.730469 3.273438 11.050781.660156 6.082031 8.039063 10.011719 17.492188 11.417969 27.472657-4.429688.28125-7.878906 3.957031-7.878906 8.394531s3.449218 8.113281 7.878906 8.398438c-1.414062 10-5.359375 19.472656-11.460938 27.519531-3.324218-2.515625-7.992187-2.191407-10.9375.753906-2.945312 2.945313-3.265624 7.613281-.753906 10.9375-8.046875 6.101563-17.519531 10.046875-27.519531 11.457031-.28125-4.429687-3.957031-7.875-8.398437-7.875-4.4375 0-8.113282 3.445313-8.394532 7.875-9.972656-1.417968-19.417968-5.355468-27.445312-11.441406 2.492187-3.335938 2.175781-7.988281-.742188-10.957031zm147.203125-45.011719c-.695312-8.785156-2.441406-17.449219-5.207031-25.816406h96.339844c-2.75 8.292968-4.492188 16.890625-5.179688 25.601562zm148.957031-27.546875c3.324219 2.59375 8.058594 2.300781 11.042969-.683594 2.980469-2.980469 3.273438-7.714843.679688-11.042969 8.042969-6.09375 17.511719-10.035156 27.503906-11.441406.28125 4.429688 3.957031 7.878906 8.398437 7.878906 4.4375 0 8.113282-3.449218 8.394532-7.878906 10.015625 1.414063 19.5 5.363282 27.554687 11.476563-2.613281 3.316406-2.335937 8.066406.648438 11.054687 2.984375 2.988282 7.730469 3.273438 11.050781.660156 6.082031 8.039063 10.011719 17.492188 11.417969 27.472657-4.429688.28125-7.878907 3.957031-7.878907 8.394531s3.449219 8.113281 7.878907 8.398438c-1.414063 10-5.359375 19.472656-11.460938 27.519531-3.320312-2.515625-7.988281-2.191407-10.9375.753906-2.945312 2.945313-3.265625 7.613281-.753906 10.9375-8.046875 6.101563-17.519531 10.046875-27.519531 11.457031-.28125-4.429687-3.957032-7.875-8.394532-7.875-4.441406 0-8.117187 3.445313-8.398437 7.875-9.972656-1.417968-19.417969-5.355468-27.441406-11.441406 2.542969-3.328125 2.226562-8.027344-.738281-10.984375-2.964844-2.960937-7.664063-3.265625-10.988282-.714844-6.113281-8.054687-10.066406-17.539062-11.476562-27.554687 4.429687-.28125 7.878906-3.957032 7.878906-8.394532 0-4.441406-3.449219-8.117187-7.878906-8.398437 1.398437-9.992187 5.328125-19.457031 11.417968-27.503906zm78.503907-34.363281c-28.878907-12.769532-62.640625-6.492188-85 15.8125-.058594.058594-.144531.074218-.203125.144531-.058594.066406-.085938.144531-.144532.203125-7.976562 8.058594-14.074218 17.78125-17.851562 28.46875h-17.921875c11.574219-40.277344 48.335937-68.085938 90.242187-68.265625 13.910157.121094 27.582032 3.609375 39.847657 10.171875zm24.585937-97.699219c.917969 1.320313 1.738282 2.703125 2.457032 4.140625l11.042968 22.074219-43.1875-12.742188zm-112.179687-22.828125-18.472657-30.785156c1.761719-1.90625 3.226563-4.066406 4.351563-6.410156l50.03125 16.675781zm-45.6875-48.175781c0-4.714844 3.820312-8.535157 8.535156-8.535157 4.710937 0 8.53125 3.820313 8.53125 8.535157 0 4.710937-3.820313 8.53125-8.53125 8.53125-4.714844 0-8.535156-3.820313-8.535156-8.53125zm-190.957031 59.730469c17.113281-.015626 33.847656 5.050781 48.074218 14.558593l28.835938 19.21875c17.03125 11.378907 37.058594 17.445313 57.539062 17.425781h48.539063l-10.703125 13.761719c-1.625 2.074219-4.113282 3.292969-6.75 3.304688h-71.816406c-1.679688-.003907-3.324219-.5-4.726563-1.433594l-68.207031-45.5c-4.191406-2.785156-9.113282-4.265625-14.148438-4.269531h-58.144531c14.875-11.097656 32.945313-17.085938 51.507813-17.066406zm-99.175782 34.132812h17.066406l-12.800781 17.070312h-4.265625zm29.671875 50.996094-11.257812-24.351563 19.984375-26.644531h67.414062c1.683594.003906 3.328125.5 4.730469 1.433594l68.164063 45.5c4.203124 2.792968 9.140624 4.277344 14.1875 4.269531h71.816406c7.910156.023437 15.378906-3.625 20.21875-9.882813l53.570312-68.871093 54.035156-30.890625 40.957032 23.457031-22.058594 9.984375c-6.652344 2.808594-10.816406 9.503906-10.398438 16.71875.421876 7.210938 5.339844 13.375 12.277344 15.390625l58.582032 17.136719 2.328124 4.667968c2.382813 4.769532 3.621094 10.027344 3.617188 15.359376l-.203125 32.382812c-22.792969-29.640625-59.210937-45.503906-96.4375-42.007812-37.226563 3.492187-70.054687 25.855468-86.933594 59.21875h-110.703125c-19.136718-36.582032-56.945312-59.570313-98.230468-59.730469-19.757813.34375-39.03125 6.183593-55.660157 16.859375zm31.8125 4.070312c7.695313-2.539062 15.746094-3.84375 23.847657-3.863281 41.917968.167969 78.691406 27.980469 90.265624 68.265625h-17.917968c-3.746094-10.554688-9.75-20.167969-17.597656-28.160156-.136719-.164063-.1875-.359375-.339844-.511719s-.339844-.195313-.488282-.324219c-18.988281-18.9375-46.558593-26.457031-72.53125-19.78125zm0 0"/><path d="m187.734375 358.425781c-4.714844 0-8.535156 3.820313-8.535156 8.535157 0 4.710937 3.820312 8.53125 8.535156 8.53125h59.730469c4.714844 0 8.535156-3.820313 8.535156-8.53125 0-4.714844-3.820312-8.535157-8.535156-8.535157zm0 0"/><path d="m102.398438 332.828125c18.851562 0 34.136718-15.285156 34.136718-34.132813 0-18.851562-15.285156-34.136718-34.136718-34.136718-18.851563 0-34.132813 15.285156-34.132813 34.136718 0 18.847657 15.28125 34.132813 34.132813 34.132813zm0-51.203125c9.425781 0 17.066406 7.644531 17.066406 17.070312 0 9.425782-7.640625 17.066407-17.066406 17.066407-9.425782 0-17.066407-7.640625-17.066407-17.066407 0-9.425781 7.640625-17.070312 17.066407-17.070312zm0 0"/><path d="m409.601562 332.828125c18.851563 0 34.132813-15.285156 34.132813-34.132813 0-18.851562-15.28125-34.136718-34.132813-34.136718-18.851562 0-34.136718 15.285156-34.136718 34.136718 0 18.847657 15.285156 34.132813 34.136718 34.132813zm0-51.203125c9.425782 0 17.066407 7.644531 17.066407 17.070312 0 9.425782-7.640625 17.066407-17.066407 17.066407-9.425781 0-17.066406-7.640625-17.066406-17.066407 0-9.425781 7.640625-17.070312 17.066406-17.070312zm0 0"/></svg>